{"title":"The Quiet Room (1996) DVDRip XviD","uid":6665760,"size":733226094,"categoryP":"video","categoryS":"movies","magnet":"?xt=urn:btih:960380a5985a0cd19c61a7463ea708a9291a3812&amp;dn=The+Quiet+Room+%281996%29+DVDRip+XviD&amp;tr=udp%3A%2F%2Ftracker.openbittorrent.com%3A80&amp;tr=udp%3A%2F%2Fopen.demonii.com%3A1337&amp;tr=udp%3A%2F%2Ftracker.coppersurfer.tk%3A6969&amp;tr=udp%3A%2F%2Fexodus.desync.com%3A6969","seeders":0,"leechers":1,"uploader":"CanadaJoe","files":-1,"time":1315674118,"description":"IMDb: http://www.imdb.com/title/tt0117422/\n\nGeneral:\n\nLanguage                         : English\nText                             : None\n  \nFormat                           : AVI\nFile size                        : 699 MiB\nDuration                         : 1h 32mn\nOverall bit rate                 : 1 053 Kbps\n\nVideo: \n \nFormat                           : MPEG-4 Visual\nFormat settings, Matrix          : Default (H.263)\nCodec ID/Hint                    : XviD\nDuration                         : 1h 32mn\nBit rate                         : 910 Kbps\nWidth                            : 592 pixels\nHeight                           : 320 pixels\nDisplay aspect ratio             : 1.850\nFrame rate                       : 23.976 fps\nScan type                        : Progressive\nStream size                      : 604 MiB (86%)\n\nAudio:\n\nFormat                           : MPEG Audio\nCodec ID/Hint                    : MP3\nDuration                         : 1h 32mn\nBit rate mode                    : Variable\nNominal bit rate                 : 138 Kbps\nChannel(s)                       : 2 channels\nSampling rate                    : 48.0 KHz\nStream size                      : 87.0 MiB (12%)","torrent":{"xt":"urn:btih:960380a5985a0cd19c61a7463ea708a9291a3812","amp;dn":"The+Quiet+Room+%281996%29+DVDRip+XviD","amp;tr":["udp%3A%2F%2Ftracker.openbittorrent.com%3A80","udp%3A%2F%2Fopen.demonii.com%3A1337","udp%3A%2F%2Ftracker.coppersurfer.tk%3A6969","udp%3A%2F%2Fexodus.desync.com%3A6969"],"infoHash":"960380a5985a0cd19c61a7463ea708a9291a3812","infoHashBuffer":{"type":"Buffer","data":[150,3,128,165,152,90,12,209,156,97,167,70,62,167,8,169,41,26,56,18]},"announce":[],"urlList":[]}}